<svg width="32" height="32" xmlns="http://www.w3.org/2000/svg">

 <g>
  <rect fill="none" id="canvas_background" height="402" width="582" y="-1" x="-1"/>
 </g>
 <g>
  <title>Layer 1</title>
  <path id="Close" fill="#000" d="m18.291119,16.000572l13.063477,-12.992124c0.626301,-0.619957 0.626301,-1.62362 0,-2.24199c-0.62471,-0.619957 -1.639473,-0.619957 -2.264187,0l-13.052376,12.981027l-13.17288,-13.174466c-0.624713,-0.626298 -1.639475,-0.626298 -2.264188,0c-0.624713,0.627884 -0.624713,1.644232 0,2.27053l13.163366,13.164952l-13.210934,13.137997c-0.624713,0.619955 -0.624713,1.623621 0,2.241989c0.624713,0.619959 1.639476,0.619959 2.264188,0l13.199833,-13.126896l13.120556,13.122141c0.624716,0.626297 1.639477,0.626297 2.264189,0c0.624712,-0.627886 0.624712,-1.64423 0,-2.270531l-13.111044,-13.112629z"/>
 </g>
</svg>