<svg width="8" height="14" viewBox="0 0 8 14" fill="none" xmlns="http://www.w3.org/2000/svg">
<path fill-rule="evenodd" clip-rule="evenodd" d="M8 1C8 1.55228 7.55228 2 7 2C6.44772 2 6 1.55228 6 1C6 0.447715 6.44772 0 7 0C7.55228 0 8 0.447715 8 1ZM8 4C8 4.55228 7.55228 5 7 5C6.44772 5 6 4.55228 6 4C6 3.44772 6.44772 3 7 3C7.55228 3 8 3.44772 8 4ZM7 8C7.55228 8 8 7.55228 8 7C8 6.44772 7.55228 6 7 6C6.44772 6 6 6.44772 6 7C6 7.55228 6.44772 8 7 8ZM8 10C8 10.5523 7.55228 11 7 11C6.44772 11 6 10.5523 6 10C6 9.44771 6.44772 9 7 9C7.55228 9 8 9.44771 8 10ZM4 5C4.55228 5 5 4.55228 5 4C5 3.44772 4.55228 3 4 3C3.44772 3 3 3.44772 3 4C3 4.55228 3.44772 5 4 5ZM5 7C5 7.55228 4.55228 8 4 8C3.44772 8 3 7.55228 3 7C3 6.44772 3.44772 6 4 6C4.55228 6 5 6.44772 5 7ZM4 11C4.55228 11 5 10.5523 5 10C5 9.44771 4.55228 9 4 9C3.44772 9 3 9.44771 3 10C3 10.5523 3.44772 11 4 11ZM2 4C2 4.55228 1.55228 5 1 5C0.447715 5 0 4.55228 0 4C0 3.44772 0.447715 3 1 3C1.55228 3 2 3.44772 2 4ZM1 8C1.55228 8 2 7.55228 2 7C2 6.44772 1.55228 6 1 6C0.447715 6 0 6.44772 0 7C0 7.55228 0.447715 8 1 8ZM2 10C2 10.5523 1.55228 11 1 11C0.447715 11 0 10.5523 0 10C0 9.44771 0.447715 9 1 9C1.55228 9 2 9.44771 2 10ZM7 14C7.55228 14 8 13.5523 8 13C8 12.4477 7.55228 12 7 12C6.44772 12 6 12.4477 6 13C6 13.5523 6.44772 14 7 14ZM5 13C5 13.5523 4.55228 14 4 14C3.44772 14 3 13.5523 3 13C3 12.4477 3.44772 12 4 12C4.55228 12 5 12.4477 5 13ZM1 14C1.55228 14 2 13.5523 2 13C2 12.4477 1.55228 12 1 12C0.447715 12 0 12.4477 0 13C0 13.5523 0.447715 14 1 14Z" fill="#2F8FFF"/>
</svg>
