<svg width="42" height="29" viewBox="0 0 42 29" fill="none" xmlns="http://www.w3.org/2000/svg">
<path d="M22.9471 11.7323C22.6825 11.7323 22.4287 11.6275 22.2413 11.4407L13.3618 2.59445C12.9716 2.20569 12.3404 2.20569 11.9502 2.59445L0.711089 13.7916C0.318797 14.1824 0.318797 14.8176 0.711089 15.2084L11.9502 26.4055C12.3404 26.7943 12.9716 26.7943 13.3618 26.4055L21.9324 17.8669C22.1198 17.6802 22.3736 17.5754 22.6382 17.5754H23.5142C24.4052 17.5754 24.8513 18.6528 24.2211 19.2827L20.3447 23.1569L28.0903 29L41.3359 15.1923C41.7071 14.8054 41.7071 14.1946 41.3359 13.8077L28.0903 0L20.3447 5.84307L24.5296 10.0249C25.1599 10.6548 24.7138 11.7323 23.8228 11.7323H22.9471Z" fill="#2F8FFF"/>
<path d="M20.3447 23.1569L16.1944 27.2916C15.5626 27.921 16.0084 29 16.9002 29L28.0903 29L20.3447 23.1569Z" fill="#2F8FFF"/>
<path d="M16.1944 1.70845C15.5626 1.07903 16.0084 9.70658e-06 16.9002 8.9901e-06L28.0903 0L20.3447 5.84307L16.1944 1.70845Z" fill="#2F8FFF"/>
</svg>
