<svg width="28" height="32" viewBox="0 0 28 32" fill="none" xmlns="http://www.w3.org/2000/svg">
<path d="M27.2536 14.2537C27.2536 6.94557 21.3081 1 14 1C6.69196 1 0.746338 6.94557 0.746338 14.2537C0.746338 14.6878 1.09831 15.0398 1.53243 15.0398C1.96655 15.0398 2.31853 14.6877 2.31853 14.2537C2.31853 7.81246 7.5588 2.57225 14 2.57225C20.4411 2.57225 25.6814 7.81252 25.6814 14.2537C25.6814 20.6948 20.4411 25.935 14 25.935H12.6361L14.5862 23.7521C14.8755 23.4284 14.8475 22.9314 14.5237 22.6421C14.2 22.3529 13.7029 22.381 13.4137 22.7047L10.6261 25.8251C10.1697 26.3359 10.1697 27.1063 10.6261 27.6171L13.4137 30.7376C13.5691 30.9115 13.7842 30.9999 14.0002 30.9999C14.1866 30.9999 14.3738 30.934 14.5237 30.8001C14.8475 30.5109 14.8755 30.0139 14.5862 29.6901L12.6361 27.5072H14C21.3081 27.5072 27.2536 21.5617 27.2536 14.2537Z" fill="#2F8FFF" stroke="#2F8FFF"/>
</svg>
