<svg width="11" height="12" viewBox="0 0 11 12" fill="none" xmlns="http://www.w3.org/2000/svg">
<path d="M10.4585 10.2259L7.84051 7.62766C8.51365 6.8641 8.88247 5.90338 8.88247 4.90322C8.88247 2.56646 6.89009 0.665283 4.44123 0.665283C1.99238 0.665283 0 2.56646 0 4.90322C0 7.23998 1.99238 9.14116 4.44123 9.14116C5.36057 9.14116 6.23665 8.87657 6.98567 8.37428L9.62357 10.9922C9.73383 11.1015 9.88213 11.1617 10.041 11.1617C10.1915 11.1617 10.3342 11.107 10.4425 11.0075C10.6727 10.7962 10.68 10.4457 10.4585 10.2259ZM4.44123 1.77083C6.25133 1.77083 7.72388 3.17599 7.72388 4.90322C7.72388 6.63046 6.25133 8.03561 4.44123 8.03561C2.63114 8.03561 1.15858 6.63046 1.15858 4.90322C1.15858 3.17599 2.63114 1.77083 4.44123 1.77083Z" fill="#303030"/>
</svg>
