<svg width="32" height="22" viewBox="0 0 32 22" fill="none" xmlns="http://www.w3.org/2000/svg">
<path d="M0 5C0 3.89543 0.895431 3 2 3H30C31.1046 3 32 3.89543 32 5V17C32 18.1046 31.1046 19 30 19H2C0.895431 19 0 18.1046 0 17V5Z" fill="#D8E4FD"/>
<path fill-rule="evenodd" clip-rule="evenodd" d="M29 4H1L3 6H29V16L31 18V6V4H29Z" fill="white"/>
<path fill-rule="evenodd" clip-rule="evenodd" d="M3 18L31 18L29 16L3 16L3 6L1 4L1 16L1 18L3 18Z" fill="#AECBEE"/>
<path d="M0.5 5C0.5 4.17157 1.17157 3.5 2 3.5H30C30.8284 3.5 31.5 4.17157 31.5 5V17C31.5 17.8284 30.8284 18.5 30 18.5H2C1.17157 18.5 0.5 17.8284 0.5 17V5Z" stroke="#2F8FFF"/>
<rect x="7" y="9" width="18" height="1" fill="#2F8FFF"/>
<rect x="7" y="11" width="10" height="1" fill="#2F8FFF"/>
<rect x="2.5" y="18.5" width="2" height="2" stroke="#2F8FFF"/>
<rect x="7.5" y="18.5" width="2" height="2" stroke="#2F8FFF"/>
<rect x="27.5" y="18.5" width="2" height="2" stroke="#2F8FFF"/>
<rect x="12.5" y="18.5" width="2" height="2" stroke="#2F8FFF"/>
<rect x="17.5" y="18.5" width="2" height="2" stroke="#2F8FFF"/>
<rect x="22.5" y="18.5" width="2" height="2" stroke="#2F8FFF"/>
<rect x="2.5" y="1.5" width="2" height="2" stroke="#2F8FFF"/>
<rect x="3" width="1" height="2" fill="#2F8FFF"/>
<rect x="7.5" y="1.5" width="2" height="2" stroke="#2F8FFF"/>
<rect x="8" width="1" height="2" fill="#2F8FFF"/>
<rect x="12.5" y="1.5" width="2" height="2" stroke="#2F8FFF"/>
<rect x="13" width="1" height="2" fill="#2F8FFF"/>
<rect x="17.5" y="1.5" width="2" height="2" stroke="#2F8FFF"/>
<rect x="18" width="1" height="2" fill="#2F8FFF"/>
<rect x="22.5" y="1.5" width="2" height="2" stroke="#2F8FFF"/>
<rect x="23" width="1" height="2" fill="#2F8FFF"/>
<rect x="27.5" y="1.5" width="2" height="2" stroke="#2F8FFF"/>
<rect x="28" width="1" height="2" fill="#2F8FFF"/>
<rect x="3" y="20" width="1" height="2" fill="#2F8FFF"/>
<rect x="8" y="20" width="1" height="2" fill="#2F8FFF"/>
<rect x="28" y="20" width="1" height="2" fill="#2F8FFF"/>
<rect x="13" y="20" width="1" height="2" fill="#2F8FFF"/>
<rect x="18" y="20" width="1" height="2" fill="#2F8FFF"/>
<rect x="23" y="20" width="1" height="2" fill="#2F8FFF"/>
</svg>
