<svg width="32" height="20" viewBox="0 0 32 20" fill="none" xmlns="http://www.w3.org/2000/svg">
<path d="M0 4C0 2.89543 0.895431 2 2 2H30C31.1046 2 32 2.89543 32 4V16C32 17.1046 31.1046 18 30 18H2C0.895431 18 0 17.1046 0 16V4Z" fill="#D8E4FD"/>
<path fill-rule="evenodd" clip-rule="evenodd" d="M1 3H7V5H3L1 3ZM8 3H29H31V5V17L29 15V5H10L8 3Z" fill="white"/>
<path fill-rule="evenodd" clip-rule="evenodd" d="M3 17L31 17L29 15L3 15L3 5L1 3L1 15L1 17L3 17Z" fill="#AECBEE"/>
<path d="M10 5L10 17L8 17L8 3L10 5Z" fill="#AECBEE"/>
<path d="M0.5 4C0.5 3.17157 1.17157 2.5 2 2.5H30C30.8284 2.5 31.5 3.17157 31.5 4V16C31.5 16.8284 30.8284 17.5 30 17.5H2C1.17157 17.5 0.5 16.8284 0.5 16V4Z" stroke="#2F8FFF"/>
<rect x="11" y="10" width="10" height="1" fill="#2F8FFF"/>
<rect x="2.5" y="17.5" width="2" height="2" stroke="#2F8FFF"/>
<rect x="7.5" y="17.5" width="2" height="2" stroke="#2F8FFF"/>
<rect x="27.5" y="17.5" width="2" height="2" stroke="#2F8FFF"/>
<rect x="12.5" y="17.5" width="2" height="2" stroke="#2F8FFF"/>
<rect x="17.5" y="17.5" width="2" height="2" stroke="#2F8FFF"/>
<rect x="22.5" y="17.5" width="2" height="2" stroke="#2F8FFF"/>
<rect x="2.5" y="0.5" width="2" height="2" stroke="#2F8FFF"/>
<rect x="7.5" y="0.5" width="2" height="2" stroke="#2F8FFF"/>
<rect x="12.5" y="0.5" width="2" height="2" stroke="#2F8FFF"/>
<rect x="17.5" y="0.5" width="2" height="2" stroke="#2F8FFF"/>
<rect x="22.5" y="0.5" width="2" height="2" stroke="#2F8FFF"/>
<rect x="27.5" y="0.5" width="2" height="2" stroke="#2F8FFF"/>
<circle cx="25" cy="10" r="1.5" stroke="#2F8FFF"/>
<path d="M3 12C4.10457 12 5 11.1046 5 10C5 8.89543 4.10457 8 3 8" stroke="#2F8FFF"/>
<rect x="7" y="2" width="1" height="15" fill="#2F8FFF"/>
</svg>
