<svg width="37" height="31" viewBox="0 0 37 31" fill="none" xmlns="http://www.w3.org/2000/svg">
<path d="M24 25H20V26.75H21V30L23 29.125V26.75H24V25Z" fill="#D8E4FD"/>
<path d="M18 25H14V26.75H15V30L17 29.125V26.75H18V25Z" fill="#D8E4FD"/>
<path fill-rule="evenodd" clip-rule="evenodd" d="M26.5 24L30.5 24L36 22.5L36 8.5L30.5 6.5L26 6.5L26 24L26.5 24ZM28 15.5C28 13.567 29.567 12 31.5 12C33.433 12 35 13.567 35 15.5C35 17.433 33.433 19 31.5 19C29.567 19 28 17.433 28 15.5Z" fill="#D8E4FD"/>
<rect width="18" height="17" transform="matrix(4.37114e-08 -1 -1 -4.37114e-08 27 24)" fill="#D8E4FD"/>
<path d="M24 22L26.5 24.5L10.5 24.5L10.5 6.5L12.5 9L12.5 21.5L13.5 22.5L22.5 22.5L24 22Z" fill="#AECBEE"/>
<path fill-rule="evenodd" clip-rule="evenodd" d="M24 11L24 22L22 20L22 11L15 11L13 9L22 9L24 9L24 11Z" fill="white"/>
<path fill-rule="evenodd" clip-rule="evenodd" d="M13 20L13 9L15 11L15 20L22 20L24 22L15 22L13 22L13 20Z" fill="#AECBEE"/>
<rect x="13.5" y="24.5" width="4" height="2" stroke="#2F8FFF"/>
<path fill-rule="evenodd" clip-rule="evenodd" d="M10.5 6L6.5 6L1 8L1 22.5L6.5 24.5L11 24.5L11 6L10.5 6ZM9 15.5C9 17.433 7.433 19 5.5 19C3.567 19 2 17.433 2 15.5C2 13.567 3.567 12 5.5 12C7.433 12 9 13.567 9 15.5Z" fill="#D8E4FD"/>
<path fill-rule="evenodd" clip-rule="evenodd" d="M6.14751 7L1 8.55242L1 22.4476L6.14751 24L26 24L26 7L6.14751 7ZM7.90968e-08 7.80952L7.5142e-07 23.1905L6 25L26 25L27 25L27 24L27 7L27 6L26 6L6 6L7.90968e-08 7.80952ZM5.5 18C6.88071 18 8 16.8807 8 15.5C8 14.1193 6.88071 13 5.5 13C4.11929 13 3 14.1193 3 15.5C3 16.8807 4.11929 18 5.5 18ZM5.5 19C7.433 19 9 17.433 9 15.5C9 13.567 7.433 12 5.5 12C3.567 12 2 13.567 2 15.5C2 17.433 3.567 19 5.5 19Z" fill="#2F8FFF"/>
<path d="M14.5 26.5H16.5V29.8908L14.5 30.367V26.5Z" stroke="#2F8FFF"/>
<path d="M20.5 26.5H22.5V29.8908L20.5 30.367V26.5Z" stroke="#2F8FFF"/>
<rect x="19.5" y="24.5" width="4" height="2" stroke="#2F8FFF"/>
<path d="M17 6H13V4.5H14V0L16 0.75V4.5H17V6Z" fill="#D8E4FD"/>
<path d="M23 6H19V4.5H20V0L22 0.75V4.5H23V6Z" fill="#D8E4FD"/>
<rect x="0.5" y="-0.5" width="4" height="2" transform="matrix(1 0 0 -1 13 6)" stroke="#2F8FFF"/>
<path d="M14.5 4.5H16.5V1.10922L14.5 0.633025V4.5Z" stroke="#2F8FFF"/>
<path d="M20.5 4.5H22.5V1.10922L20.5 0.633025V4.5Z" stroke="#2F8FFF"/>
<rect x="0.5" y="-0.5" width="4" height="2" transform="matrix(1 0 0 -1 19 6)" stroke="#2F8FFF"/>
<rect x="-0.5" y="-0.5" width="14" height="12" rx="1.5" transform="matrix(4.37114e-08 -1 -1 -4.37114e-08 24 22)" stroke="#2F8FFF"/>
<path fill-rule="evenodd" clip-rule="evenodd" d="M30.8525 24L36 22.4476L36 8.55243L30.8525 7L11 7L11 24L30.8525 24ZM37 23.1905L37 7.80953L31 6L11 6L10 6L10 7L10 24L10 25L11 25L31 25L37 23.1905ZM31.5 13C30.1193 13 29 14.1193 29 15.5C29 16.8807 30.1193 18 31.5 18C32.8807 18 34 16.8807 34 15.5C34 14.1193 32.8807 13 31.5 13ZM31.5 12C29.567 12 28 13.567 28 15.5C28 17.433 29.567 19 31.5 19C33.433 19 35 17.433 35 15.5C35 13.567 33.433 12 31.5 12Z" fill="#2F8FFF"/>
<rect width="9" height="1" transform="matrix(4.37114e-08 -1 -1 -4.37114e-08 21 21)" fill="#2F8FFF"/>
<rect width="5" height="1" transform="matrix(4.37114e-08 -1 -1 -4.37114e-08 19 19)" fill="#2F8FFF"/>
<rect width="9" height="1" transform="matrix(4.37114e-08 -1 -1 -4.37114e-08 17 21)" fill="#2F8FFF"/>
</svg>
